<svg width="40" height="25" viewBox="0 0 40 25" fill="none" xmlns="http://www.w3.org/2000/svg">
<g id="&#231;&#188;&#150;&#231;&#187;&#132;">
<path id="Combined Shape" fill-rule="evenodd" clip-rule="evenodd" d="M13.3243 21.5106C18.1685 20.4054 21.7833 16.0707 21.7833 10.8916C21.7833 4.87635 16.9069 0 10.8916 0C4.87635 0 0 4.87635 0 10.8916C0 15.697 3.11198 19.7755 7.43055 21.2218C10.8514 23.6499 14.973 24.9999 19.3079 24.9999C24.9725 24.9999 30.2727 22.6946 34.1211 18.6912C34.5949 18.1985 34.5794 17.415 34.0866 16.9412C33.5938 16.4675 32.8103 16.483 32.3366 16.9758C28.9502 20.4985 24.292 22.5246 19.3079 22.5246C17.2342 22.5246 15.217 22.1739 13.3243 21.5106Z" fill="#0066FF"/>
<path id="Path&#229;&#164;&#135;&#228;&#187;&#189;" d="M4.50391 18.7009C8.35173 22.6984 13.648 25 19.3079 25C24.9725 25 30.2727 22.6946 34.1211 18.6913C34.5949 18.1985 34.5794 17.415 34.0866 16.9412C33.5938 16.4675 32.8103 16.483 32.3366 16.9758C28.9502 20.4985 24.292 22.5246 19.3079 22.5246C14.3279 22.5246 9.6732 20.5018 6.28732 16.9843C5.81328 16.4918 5.02977 16.4769 4.53729 16.9509C4.04481 17.4249 4.02987 18.2085 4.50391 18.7009Z" fill="#0066FF"/>
<circle id="Combined Shape_2" cx="28.7142" cy="10.8916" r="10.8916" fill="#40E2FF"/>
<path id="Combined Shape Copy" fill-rule="evenodd" clip-rule="evenodd" d="M19.8027 17.1612C21.0503 15.3895 21.7829 13.2291 21.7829 10.8975C21.7829 8.56586 21.0503 6.40538 19.8027 4.63367C18.5551 6.40538 17.8224 8.56586 17.8224 10.8975C17.8224 13.2291 18.5551 15.3895 19.8027 17.1612Z" fill="white" fill-opacity="0.5"/>
<rect id="Rectangle" x="24.3204" y="7.11816" width="9.4064" height="1.48522" rx="0.742611" fill="white" stroke="white" stroke-width="0.634233"/>
<rect id="Rectangle Copy 2" x="28.2811" y="17.5161" width="9.90148" height="1.48522" rx="0.742611" transform="rotate(-90 28.2811 17.5161)" fill="white" stroke="white" stroke-width="0.634233"/>
<path id="&#229;&#189;&#162;&#231;&#138;&#182;" fill-rule="evenodd" clip-rule="evenodd" d="M16.571 9.928V9.9327L14.9422 9.93592V17.1821C14.9424 17.192 14.9451 17.2011 14.9451 17.211C14.9451 17.2209 14.9424 17.2303 14.9422 17.2402V17.4093L14.9216 17.4088C14.8313 17.8091 14.4753 18.1083 14.0478 18.1083C13.6082 18.1083 13.2441 17.7917 13.1668 17.3744L13.1527 17.3742V17.234C13.1527 17.2261 13.1505 17.2189 13.1505 17.211C13.1505 17.2031 13.1527 17.1959 13.1527 17.188V9.9327H12.9532V9.93592H10.1684V11.6095C10.1692 11.6229 10.1724 11.6358 10.1724 11.6491C10.1724 11.6627 10.1692 11.6756 10.1684 11.689V11.7499H10.1622C10.1145 12.1088 9.81915 12.3868 9.45305 12.4039V12.4351L8.77331 12.4427C7.38809 12.4427 6.69524 12.9252 6.69524 13.8901C6.69524 14.1505 6.74351 14.3884 6.83955 14.6032C6.93535 14.8181 7.06803 15.001 7.23709 15.152C7.40616 15.3028 7.60493 15.4206 7.83366 15.5053C8.06238 15.5897 8.31141 15.632 8.58122 15.632C9.21219 15.632 9.91643 15.28 10.6935 14.5757L10.6972 14.5795C10.8385 14.4829 11.0093 14.4262 11.1935 14.4262C11.6804 14.4262 12.0752 14.8211 12.0752 15.3082C12.0752 15.6463 11.8829 15.9365 11.6036 16.0845C10.6848 16.9098 9.66197 17.3264 8.5332 17.3264C8.04852 17.3264 7.59033 17.238 7.15838 17.062C6.72618 16.886 6.3467 16.6471 6.01971 16.3451C5.69271 16.0434 5.43354 15.6926 5.2412 15.2926C5.04936 14.8923 4.95332 14.4686 4.95332 14.0203C4.95332 13.499 5.0355 13.0383 5.20036 12.6383C5.36472 12.2383 5.59914 11.9009 5.90337 11.6268C6.20734 11.3523 6.57295 11.1454 7.0007 11.0058C7.42795 10.8667 7.92871 10.8327 8.4775 10.8327V9.93592L4.36344 9.9327L4.36443 9.8926C4.04164 9.7921 3.80598 9.49481 3.80598 9.1391C3.80598 8.77076 4.05847 8.46382 4.39884 8.3747L4.39958 8.34153H9.56543C9.14016 7.61526 8.92406 7.04196 8.92406 6.62684C8.92406 6.33426 8.97332 6.06543 9.07159 5.82086C9.17011 5.5763 9.31071 5.36465 9.49339 5.18643C9.67608 5.00795 9.89812 4.86983 10.1588 4.77156C10.4192 4.67304 10.7118 4.62402 11.0363 4.62402C11.2242 4.62402 11.3999 4.65274 11.5645 4.70992C11.7289 4.76685 11.8915 4.85052 12.0514 4.95993C12.2116 5.06984 12.3727 5.20252 12.5349 5.35772C12.6973 5.51342 12.8676 5.68942 13.0458 5.88597C13.0963 5.94092 13.1659 6.02087 13.255 6.12608C13.3441 6.23128 13.4446 6.35134 13.5567 6.48624C13.6688 6.62115 13.7877 6.7672 13.9134 6.92513C14.0392 7.08281 14.1637 7.24197 14.2872 7.40188C14.4107 7.56179 14.5295 7.72071 14.6436 7.87839C14.758 8.03607 14.8555 8.2044 14.9422 8.34153H16.5338V8.34648C16.9725 8.34797 17.3277 8.70219 17.3277 9.1391C17.3277 9.56337 16.992 9.90671 16.571 9.928ZM12.7302 7.83735C12.6067 7.67027 12.4822 7.51036 12.3564 7.35713C12.2307 7.20415 12.1071 7.05885 11.9861 6.92171C11.8648 6.78458 11.7507 6.66452 11.6433 6.56155C11.5356 6.45857 11.4385 6.37763 11.3517 6.31822C11.265 6.25881 11.194 6.22886 11.139 6.22886C10.9472 6.22886 10.7883 6.27242 10.6623 6.35931C10.5368 6.4462 10.4739 6.56972 10.4739 6.72962C10.4739 6.90166 10.7707 7.44154 11.3581 8.34159H12.4557H12.953H13.0522C12.9473 8.18613 12.8537 8.00444 12.7302 7.83735Z" fill="white"/>
</g>
</svg>
